{"title":"Ghosts.Dont.Exist.2010.DVDRip Xvid AC3 LKRG","uid":6137590,"size":1058487388,"categoryP":"video","categoryS":"movies","magnet":"?xt=urn:btih:cc88f4b7e2718db6a3c3007fe2d22accfbb855c4&amp;dn=Ghosts.Dont.Exist.2010.DVDRip+Xvid+AC3+LKRG&amp;tr=udp%3A%2F%2Ftracker.openbittorrent.com%3A80&amp;tr=udp%3A%2F%2Fopen.demonii.com%3A1337&amp;tr=udp%3A%2F%2Ftracker.coppersurfer.tk%3A6969&amp;tr=udp%3A%2F%2Fexodus.desync.com%3A6969","seeders":0,"leechers":0,"uploader":".BONE.","files":73,"time":1296368895,"description":"Format;AVI\n\nFile Size:1.02gb\n\nVideo:ID : 0\nFormat : MPEG-4 Visual\nFormat profile : Advanced Simple@L5\nFormat settings, BVOP : Yes\nFormat settings, QPel : No\nFormat settings, GMC : No warppoints\nFormat settings, Matrix : Default (H.263)\nCodec ID : XVID\nCodec ID/Hint : XviD\nDuration : 1h 38mn\nBit rate : 1 090 Kbps\nWidth : 720 pixels\nHeight : 304 pixels\nDisplay aspect ratio : 2.35:1\nFrame rate : 23.976 fps\nColor space : YUV\nChroma subsampling : 4:2:0\nBit depth : 8 bits\nScan type : Progressive\nBits/(Pixel*Frame) : 0.208\nStream size : 765 MiB (73%)\nWriting library : XviD 1.2.1 (UTC 2008-12-04)\n\nAudio:ID : 1\nFormat : AC-3\nFormat/Info : Audio Coding 3\nMode extension : CM (complete main)\nCodec ID : 2000\nDuration : 1h 38mn\nBit rate mode : Constant\nBit rate : 384 Kbps\nChannel(s) : 6 channels\nChannel positions : Front: L C R, Side: L R, LFE\nSampling rate : 48.0 KHz\nBit depth : 16 bits\nStream size : 269 MiB (26%)\nAlignment : Aligned on interleaves\nInterleave, duration : 32 ms (0.77 video frame)\n\nDuration:1:33\n\nRelease Date:1982\n\nLanguage:English\n\n\n","torrent":{"xt":"urn:btih:cc88f4b7e2718db6a3c3007fe2d22accfbb855c4","amp;dn":"Ghosts.Dont.Exist.2010.DVDRip+Xvid+AC3+LKRG","amp;tr":["udp%3A%2F%2Ftracker.openbittorrent.com%3A80","udp%3A%2F%2Fopen.demonii.com%3A1337","udp%3A%2F%2Ftracker.coppersurfer.tk%3A6969","udp%3A%2F%2Fexodus.desync.com%3A6969"],"infoHash":"cc88f4b7e2718db6a3c3007fe2d22accfbb855c4","infoHashBuffer":{"type":"Buffer","data":[204,136,244,183,226,113,141,182,163,195,0,127,226,210,42,204,251,184,85,196]},"announce":[],"urlList":[]}}